<?xml version="1.0" encoding="iso-8859-1"?>
<!-- Generator: Adobe Illustrator 16.0.0, SVG Export Plug-In . SVG Version: 6.00 Build 0)  -->
<!DOCTYPE svg PUBLIC "-//W3C//DTD SVG 1.1//EN" "http://www.w3.org/Graphics/SVG/1.1/DTD/svg11.dtd">
<svg version="1.1" id="Capa_1" xmlns="http://www.w3.org/2000/svg" xmlns:xlink="http://www.w3.org/1999/xlink" x="0px" y="0px"
	 width="612.029px" height="612.029px" viewBox="0 0 612.029 612.029" style="enable-background:new 0 0 612.029 612.029;"
	 xml:space="preserve">
<g>
	<g>
		<g>
			<g>
				<g>
					<path d="M470.128,328.236c-78.368,0-141.906,63.538-141.906,141.887c0,78.368,63.538,141.906,141.906,141.906
						c78.349,0,141.887-63.538,141.887-141.906C612.015,391.774,548.477,328.236,470.128,328.236z M479.251,575.03v-12.274
						c0-5.044-4.079-9.142-9.123-9.142c-5.064,0-9.143,4.098-9.143,9.142v12.274c-50.814-4.391-91.394-44.97-95.765-95.765h12.274
						c5.044,0,9.142-4.099,9.142-9.143c0-5.063-4.098-9.123-9.142-9.123h-12.274c4.371-50.814,44.95-91.403,95.765-95.784v12.293
						c0,5.045,4.078,9.143,9.143,9.143c5.044,0,9.123-4.098,9.123-9.143v-12.293c50.814,4.391,91.413,44.97,95.765,95.784h-12.274
						c-5.063,0-9.142,4.06-9.142,9.123c0,5.044,4.078,9.143,9.142,9.143h12.274C570.664,530.07,530.065,570.649,479.251,575.03z"/>
				</g>
			</g>
		</g>
		<g>
			<g>
				<g>
					<path d="M523.001,456.434h-32.92c-4.371-6.352-11.66-10.527-19.953-10.527c-0.137,0-0.254,0.039-0.4,0.039l-30.003-42.219
						c-4.361-6.157-12.908-7.581-19.084-3.229c-6.157,4.391-7.621,12.947-3.23,19.104l30.013,42.257
						c-0.927,2.596-1.521,5.367-1.521,8.274c0,13.396,10.83,24.227,24.227,24.227c8.293,0,15.602-4.156,19.953-10.527h32.92
						c7.562,0,13.699-6.118,13.699-13.699S530.562,456.434,523.001,456.434z"/>
				</g>
			</g>
		</g>
		<g>
			<g>
				<g>
					<path d="M419.44,87.726l-23.993-21.534l-28.285-5.523l-0.654,12.938l27.729,27.066l13.562,15.973l-15.279,7.971l-12.431-3.668
						l-18.587-7.786l0.634-14.987l-24.412-10.06l-8.117,35.271l-24.588,5.581l2.439,19.661l32.022,6.176l5.522-31.418l26.48,3.903
						l12.274,7.22h19.777l13.484,27.037l35.848,36.335l-2.635,14.148l-28.881-3.708l-49.868,25.242l-35.965,43.058l-4.653,19.085
						h-12.909l-24.031-11.094l-23.339,11.094l5.834,24.617l10.138-11.708l17.836-0.547l-1.229,22.09l14.801,4.332l14.782,16.606
						l20.051-5.62c30.705-28.93,71.948-46.794,117.357-46.794c50.239,0,95.346,21.846,126.725,56.396
						c3.21-17.582,4.966-35.662,4.966-54.171c0-61.957-18.782-119.592-50.932-167.45l-8.986,2.869l-47.985,4.264l-13.542,21.631
						l-9.797-3.132l-38.159-34.394l-5.562-17.895L419.44,87.726z"/>
				</g>
			</g>
		</g>
		<g>
			<g>
				<g>
					<path d="M298.667,470.133c0-35.594,10.928-68.689,29.574-96.126l-14.626-4.43l-22.587-22.646l-50.044-11.221l-16.606-34.793
						v20.675h-7.328l-43.136-58.513v-47.985l-31.632-51.4l-50.2,8.957H58.284l-17.036-11.171l21.709-17.221l-21.631,4.986
						c-26.09,44.57-41.311,96.302-41.311,151.663c0,166.182,134.706,300.965,300.897,300.965c12.792,0,25.339-1.093,37.75-2.634
						l-1.864-21.515C313.001,548.268,298.667,510.868,298.667,470.133z"/>
				</g>
			</g>
		</g>
		<g>
			<g>
				<g>
					<path d="M111.83,96.985l53.469-7.435l24.626-13.513l27.749,7.991l44.278-2.449l15.182-23.856l22.129,3.649l53.742-5.035
						l14.811-16.313l20.88-13.943l29.516,4.459l10.771-1.639C390.081,10.586,346.789,0,300.912,0
						c-93.414,0-176.963,42.57-232.09,109.406h0.156L111.83,96.985z M313.615,29.876l30.773-16.899l19.72,11.386L335.52,46.102
						l-27.241,2.732l-12.294-7.952L313.615,29.876z M222.602,32.345l13.543,5.649l17.758-5.649l9.679,16.762l-40.99,10.752
						l-19.729-11.523C202.863,48.336,222.163,35.945,222.602,32.345z"/>
				</g>
			</g>
		</g>
	</g>
</g>
<g>
</g>
<g>
</g>
<g>
</g>
<g>
</g>
<g>
</g>
<g>
</g>
<g>
</g>
<g>
</g>
<g>
</g>
<g>
</g>
<g>
</g>
<g>
</g>
<g>
</g>
<g>
</g>
<g>
</g>
</svg>
